<svg xmlns="http://www.w3.org/2000/svg" xml:space="preserve" viewBox="0 0 438 126"><path fill="#3A5FA5" d="M204.736 6.199h-11.077v4.186h10.369v5.023h-10.369v8.952h-7.309V1.08h18.386V6.199zM225.84 24.361h-6.44V21.849c-.28.602-.666 1.106-1.159 1.513-1.117.945-2.608 1.417-4.476 1.417-1.868 0-3.381-.483-4.54-1.449-.795-.686-1.342-1.61-1.642-2.769-.193-.686-.29-1.652-.29-2.898V7.294h6.826v9.274c0 1.246.332 2.061.998 2.447.386.215.88.322 1.481.322.773 0 1.352-.193 1.739-.58.451-.472.676-1.288.676-2.447V7.294h6.826V24.361zM247.457 24.361h-6.794v-9.338c0-.493-.032-.88-.097-1.159-.258-.944-.988-1.417-2.19-1.417-1.653 0-2.479.934-2.479 2.801v9.113h-6.762V7.294h6.408v2.254c.258-.386.525-.73.805-1.03 1.159-1.137 2.769-1.707 4.83-1.707 1.803 0 3.252.473 4.347 1.417.837.687 1.406 1.674 1.707 2.962.15.666.225 1.46.225 2.383V24.361zM268.754 24.361h-6.569l-.032-1.224-.676.708c-.88.622-2.083.934-3.606.934-1.396 0-2.63-.312-3.703-.934-2.212-1.288-3.51-3.563-3.896-6.826-.086-.601-.119-1.137-.097-1.61 0-1.438.203-2.705.612-3.8.622-1.717 1.696-3.016 3.22-3.896 1.073-.622 2.296-.934 3.671-.934 1.33 0 2.457.312 3.381.934.258.151.569.397.934.741V1.08h6.762V24.361zM262.152 15.763c0-1.224-.172-2.157-.515-2.801-.494-.88-1.214-1.32-2.157-1.32-.515 0-.988.161-1.417.483-.795.666-1.191 1.89-1.191 3.671 0 1.589.322 2.705.966 3.349.429.494.998.741 1.707.741.58 0 1.019-.15 1.32-.451C261.723 18.854 262.152 17.631 262.152 15.763zM289.791 24.361H283.094v-1.32c-.43.322-.848.591-1.256.805-1.202.601-2.673.902-4.411.902-1.052 0-1.964-.14-2.737-.419-1.868-.73-2.973-2.061-3.317-3.993-.064-.343-.097-.708-.097-1.095 0-1.868.783-3.338 2.351-4.411.923-.622 2.457-1.084 4.605-1.385l.29-.032c1.459-.193 2.436-.343 2.93-.451.622-.15 1.063-.268 1.32-.354 0-.343-.032-.601-.097-.773-.215-.794-.956-1.191-2.222-1.191-.28 0-.612.032-.998.097-.58.151-.977.602-1.191 1.352-.022.064-.043.119-.064.161l-6.344.161.225-.998c.279-1.202.902-2.179 1.868-2.93 1.546-1.18 3.928-1.771 7.148-1.771 4.057 0 6.59 1.063 7.599 3.188.322.708.483 1.729.483 3.059v9.274c0 .837.161 1.492.483 1.964C289.684 24.243 289.727 24.296 289.791 24.361zM282.74 16.407c-1.224.408-2.083.676-2.576.805-1.159.258-1.922.612-2.286 1.063-.193.28-.29.537-.29.773 0 .602.311 1.009.934 1.224.214.064.461.097.741.097.493 0 1.041-.15 1.642-.451C282.128 19.123 282.74 17.953 282.74 16.407zM309.542 19.82c-.43.859-.784 1.46-1.063 1.803-1.288 1.653-3.113 2.716-5.474 3.188-.73.129-1.481.193-2.254.193-1.46 0-2.759-.236-3.896-.708-2.856-1.202-4.551-3.467-5.088-6.794-.086-.601-.129-1.191-.129-1.771 0-1.18.193-2.329.58-3.445 1.095-3.262 3.467-5.141 7.116-5.635.58-.086 1.191-.129 1.835-.129 2.275 0 4.228.547 5.86 1.642.622.473 1.169.977 1.642 1.513.236.322.515.752.837 1.288l-5.12 2.898c-.129-.451-.247-.741-.354-.869-.473-1.095-1.331-1.663-2.576-1.707-.537 0-1.02.151-1.449.451-1.074.816-1.621 2.212-1.642 4.186 0 1.31.268 2.297.805 2.962.171.258.493.494.966.708.515.172.912.258 1.191.258 1.395-.021 2.404-.987 3.027-2.898L309.542 19.82zM318.731 5.588h-6.794V1.08h6.794V5.588zM318.731 24.361h-6.794V7.294h6.794V24.361zM341.251 15.86c0 2.297-.655 4.24-1.964 5.828-.086.108-.172.204-.258.29-1.396 1.589-3.413 2.554-6.054 2.898-.623.086-1.256.129-1.9.129-2.684 0-4.873-.665-6.569-1.996-2.125-1.696-3.188-4.046-3.188-7.052 0-2.618.783-4.776 2.351-6.472 1.652-1.803 3.971-2.779 6.955-2.93.258 0 .525 0 .805 0 2.705 0 4.937.698 6.698 2.093.086.086.171.161.258.225 1.546 1.374 2.479 3.274 2.801 5.699C341.228 15.001 341.251 15.431 341.251 15.86zM337.612.5l-5.345 4.508h-4.186l2.512-4.508H337.612zM334.392 15.699c0-2.318-.687-3.713-2.061-4.186-.322-.107-.687-.161-1.095-.161-.902.022-1.621.333-2.157.934-.666.752-.998 1.911-.998 3.478 0 1.481.29 2.619.869 3.413.3.408.644.687 1.03.837.3.151.73.225 1.288.225.858 0 1.535-.258 2.029-.773C334.027 18.78 334.392 17.524 334.392 15.699z"/><path fill="#F4A200" d="M415.5122681,125.5000076h-63.3308716V62.1960793	c0-12.0764542,9.550415-21.8672676,21.618042-21.8672676h41.7128296c12.0682983,0,21.8502808,9.7908134,21.8502808,21.8672676	v41.4337196C437.3625488,115.708519,427.5805664,125.5000076,415.5122681,125.5000076z"/><path fill="#3A5FA5" d="M22.4877262,125.4985733c-12.0683718,0-21.8502769-9.7908096-21.8502769-21.8672638V62.1978912	c0-12.0786438,9.7819042-21.8702126,21.8502769-21.8702126h318.8934631v63.3036308	c0,12.0764542-9.550415,21.8672638-21.618042,21.8672638H22.4877262z"/><path fill="#FFF" d="M417.788 82.912c6.261-3.326 5.793-9.125 5.793-10.488 0-7.544-7.884-14.254-17.024-14.254-5.275 0-11.226 2.026-14.167 6.387-2.025 2.945-3.02 6.499-3.21 8.224h12.197c.254-1.093 1.082-4.35 5.429-4.414 3.511 0 5.172 2.305 5.172 5.305 0 4.479-4.597 4.796-6.32 4.796h-3.284v8.888h3.284c1.723 0 6.32.318 6.32 4.798 0 3.011-1.661 5.305-5.172 5.305-4.346-.062-5.174-3.323-5.429-4.408H389.181c.19 1.725.508 5.304 2.62 8.375 3.063 4.54 9.255 6.652 14.748 6.652 9.513 0 17.5-6.586 17.5-14.842C424.049 91.818 424.049 86.238 417.788 82.912zM47.691 64.263 36.089 64.263 36.089 101.03 61.897 101.03 61.897 91.76 47.691 91.76zM94.088 83.011c0-2.499-.207-3.593-.78-4.791-2.081-4.374-7.804-5.052-12.02-5.052-5.826 0-9.104 1.147-11.238 2.812-2.134 1.667-2.705 3.542-2.965 4.585-.104.519-.26 1.04-.365 1.613l10.043-.261c.156-.572.312-1.978 1.976-2.395.26-.051.782-.155 1.562-.155 2.394 0 3.174.779 3.485 1.873.156.417.156 1.147.156 1.25-.676.209-1.405.364-2.081.521-1.509.312-3.123.521-4.63.728-2.602.366-5.464.731-7.701 2.241-3.383 2.292-3.694 5.52-3.694 6.978 0 3.645 1.873 6.664 5.359 8.021 1.821.675 3.643.675 4.319.675 3.381 0 5.828-.883 6.973-1.458 1.04-.521 1.56-.936 1.976-1.249v2.084h10.563c-.676-.938-.936-1.356-.936-3.334V83.011zM81.027 93.999c-.832.417-1.664.729-2.601.729-1.978 0-2.654-1.249-2.654-2.082 0-.626.364-1.094.469-1.25.832-1.041 2.445-1.406 3.59-1.666 1.353-.365 2.705-.782 4.059-1.249C83.889 89.729 84.045 92.384 81.027 93.999zM133.786 87.384 127.802 64.263 111.154 64.263 111.154 101.03 122.183 101.03 122.132 74.366 129.362 101.03 138 101.03 145.337 74.366 145.233 101.03 156.316 101.03 156.316 64.263 139.665 64.263zM190.783 83.011c0-2.499-.21-3.593-.782-4.791-2.08-4.374-7.804-5.052-12.018-5.052-5.828 0-9.106 1.147-11.24 2.812-2.134 1.667-2.704 3.542-2.965 4.585-.105.519-.261 1.04-.364 1.613l10.042-.261c.155-.572.311-1.978 1.976-2.395.262-.051.782-.155 1.562-.155 2.392 0 3.173.779 3.485 1.873.157.417.157 1.147.157 1.25-.678.209-1.405.364-2.082.521-1.509.312-3.122.521-4.63.728-2.603.366-5.464.731-7.701 2.241-3.384 2.292-3.695 5.52-3.695 6.978 0 3.645 1.874 6.664 5.359 8.021 1.82.675 3.643.675 4.318.675 3.383 0 5.828-.883 6.974-1.458 1.042-.521 1.562-.936 1.978-1.249v2.084h10.561c-.676-.938-.934-1.356-.934-3.334V83.011zM177.722 93.999c-.834.417-1.664.729-2.603.729-1.976 0-2.654-1.249-2.654-2.082 0-.626.364-1.094.469-1.25.832-1.041 2.445-1.406 3.59-1.666 1.353-.365 2.707-.782 4.059-1.249C180.583 89.729 180.74 92.384 177.722 93.999zM207.977 76.397v-2.344h-10.302v26.976h10.667V88.322c0-.938 0-1.666.31-2.551 1.302-3.646 5.882-3.385 6.713-3.333.521 0 1.04.052 1.561.104v-9.062c-2.808 0-5.099.106-7.491 1.772C208.862 75.615 208.497 75.929 207.977 76.397zM248.573 83.011c0-2.499-.209-3.593-.782-4.791-2.081-4.374-7.804-5.052-12.019-5.052-5.828 0-9.104 1.147-11.237 2.812-2.135 1.667-2.707 3.542-2.966 4.585-.106.519-.262 1.04-.366 1.613l10.044-.261c.154-.572.311-1.978 1.976-2.395.261-.051.78-.155 1.563-.155 2.392 0 3.172.779 3.485 1.873.156.417.156 1.147.156 1.25-.675.209-1.404.364-2.08.521-1.509.312-3.123.521-4.632.728-2.601.366-5.464.731-7.702 2.241-3.381 2.292-3.694 5.52-3.694 6.978 0 3.645 1.874 6.664 5.36 8.021 1.82.675 3.642.675 4.318.675 3.382 0 5.829-.883 6.972-1.458 1.04-.521 1.562-.936 1.979-1.249v2.084h10.563c-.677-.938-.937-1.356-.937-3.334V83.011zM235.512 93.999c-.833.417-1.665.729-2.603.729-1.977 0-2.652-1.249-2.652-2.082 0-.626.365-1.094.469-1.25.831-1.041 2.445-1.406 3.59-1.666 1.352-.365 2.705-.782 4.058-1.249C238.375 89.729 238.53 92.384 235.512 93.999zM267.284 90.874l.153-10.362h4.684v-5.833h-4.579l.051-8.489h-10.769l-.105 8.489h-3.745v5.833h3.694l-.156 13.07c0 .938.052 1.927.311 2.917.78 2.707 2.914 4.896 8.585 4.896 2.916 0 5.881-.468 6.766-.574v-7.341c-1.04.209-1.301.209-1.925.209C267.437 93.687 267.284 91.968 267.284 90.874zM301.635 63.325 290.552 63.325 286.597 70.461 293.204 70.461zM291.852 72.908c-6.555-.052-10.407 2.655-12.229 4.635-2.547 2.76-3.695 6.457-3.695 10.208 0 6.145 3.019 9.581 4.996 11.145 3.954 3.123 8.794 3.176 10.354 3.176 6.712 0 10.721-2.709 12.592-4.791 3.227-3.593 3.487-8.228 3.487-9.687 0-4.01-1.509-8.384-4.528-11.041C298.823 73.064 293.257 72.908 291.852 72.908zM294.818 93.322c-.832.833-1.977 1.198-3.226 1.198-.936 0-1.716-.209-2.029-.365-.625-.26-1.199-.729-1.614-1.303-.675-.936-1.351-2.76-1.351-5.416 0-2.76.726-4.582 1.558-5.468.469-.521 1.509-1.457 3.386-1.51.311 0 .988 0 1.767.26 1.925.678 3.227 2.552 3.227 6.615C296.536 90.354 295.755 92.384 294.818 93.322z"/><path fill="#E1251B" d="M364.943 66.642 364.943 71.867 389.081 85.557 393.643 82.912zM364.943 80.266 381.674 89.754 386.235 87.112 364.943 75.041zM364.943 88.664 374.268 93.989 378.829 91.342 364.943 83.44zM364.939 99.245 371.419 95.542 364.939 91.839z"/></svg>